<svg width="166" height="51" viewBox="0 0 166 51" fill="none" xmlns="http://www.w3.org/2000/svg">
<path d="M11.1999 49.1719L9.57413 18.2799C15.4993 35.5355 32.6966 40.3978 40.103 40.3978L11.1999 49.1719Z" fill="#0F64C4"/>
<path d="M20.5934 17.7315C20.5934 18.3372 20.1082 18.8282 19.5096 18.8282C18.9109 18.8282 18.4257 18.3372 18.4257 17.7315C18.4257 17.1258 18.9109 16.6347 19.5096 16.6347C20.1082 16.6347 20.5934 17.1258 20.5934 17.7315Z" fill="#0F64C4"/>
<path d="M26.0127 17.7315C26.0127 18.1353 25.6892 18.4627 25.2902 18.4627C24.8911 18.4627 24.5676 18.1353 24.5676 17.7315C24.5676 17.3277 24.8911 17.0003 25.2902 17.0003C25.6892 17.0003 26.0127 17.3277 26.0127 17.7315Z" fill="#0F64C4"/>
<path fill-rule="evenodd" clip-rule="evenodd" d="M44.7997 28.3336C44.7997 31.9118 43.9804 35.2962 42.5212 38.3054L33.7804 14.4414H9.0322V46.5231C3.55044 42.3913 0 35.782 0 28.3336C0 18.8814 5.71776 10.7805 13.8443 7.37931C13.9032 7.04387 13.9899 6.59585 14.1151 5.9589C14.3973 4.52463 14.8858 3.16701 15.6997 2.16734C16.5337 1.14296 17.7058 0.50422 19.2605 0.551357C19.5567 0.560337 19.8376 0.588498 20.1037 0.63466C20.7407 0.207824 21.5055 -0.0267943 22.4082 0.00244195C23.8996 0.0507519 24.9776 0.654178 25.7067 1.62917C26.4154 2.57688 26.7611 3.83016 26.9159 5.13863C26.9532 5.45372 26.9798 5.79166 26.9973 6.14516C26.6348 6.06864 26.2691 6.00099 25.9004 5.94244C25.8851 5.70795 25.865 5.48262 25.8398 5.26901C25.695 4.04525 25.3839 3.01519 24.8424 2.29096C24.3212 1.59402 23.5554 1.13692 22.3735 1.09864C22.1 1.08978 21.8454 1.11243 21.608 1.16411C22.0685 1.42834 22.4589 1.77079 22.7843 2.17808C23.5414 3.12579 23.9108 4.37908 24.0762 5.68755C24.078 5.70185 24.0798 5.71606 24.0815 5.7302C24.6951 5.77627 25.3017 5.84736 25.9004 5.94244C26.0317 7.94389 25.8244 10.6134 25.6498 12.3688C25.6094 12.7742 25.5708 13.1621 25.5385 13.5259L26.6181 13.624C26.6482 13.2842 26.6852 12.9141 26.7245 12.5211L26.7246 12.5208C26.8919 10.8481 27.1007 8.22679 26.9973 6.14516C37.1631 8.29099 44.7997 17.4099 44.7997 28.3336ZM22.9072 5.67298C22.745 4.51279 22.4165 3.53533 21.8609 2.83988C21.4918 2.37777 21.0077 2.02111 20.3554 1.82206C20.2049 1.9601 20.0645 2.11601 19.9333 2.28819C19.3213 3.0912 18.9071 4.2544 18.6574 5.61086C18.6341 5.73725 18.6123 5.86484 18.592 5.99346C18.2125 6.05923 17.8362 6.13466 17.4635 6.21949C17.5002 5.94612 17.5429 5.6758 17.5918 5.40998C17.8535 3.98884 18.3048 2.64295 19.0542 1.64596C17.9996 1.65849 17.2185 2.09781 16.6166 2.8371C15.9628 3.64012 15.5203 4.80331 15.2535 6.15978C15.198 6.44185 15.1526 6.68362 15.1157 6.89269C15.8804 6.62672 16.6638 6.40147 17.4635 6.21949C17.1025 8.9014 17.3031 11.878 17.6155 13.7986C17.7342 13.7986 17.8711 13.7644 18.025 13.726C18.2189 13.6775 18.4397 13.6224 18.685 13.6204C18.3687 11.6764 18.1772 8.62061 18.592 5.99346C19.8296 5.779 21.1018 5.66728 22.3999 5.66728C22.5694 5.66728 22.7385 5.66919 22.9072 5.67298Z" fill="#0F64C4"/>
<path d="M14.4187 49.5189L40.7064 41.3988C36.6505 47.2072 29.9629 51 22.3999 51C19.5884 51 16.8979 50.4759 14.4187 49.5189Z" fill="#0F64C4"/>
<path d="M9.0322 46.43C6.28641 44.9677 4.03438 41.5555 3.25159 40.0322L9.0322 14.4414V46.43Z" fill="#0F64C4"/>
<path d="M59.5807 34.7307V16.0683H55.9389V34.7307H59.5807Z" fill="#0F64C4"/>
<path d="M67.3782 31.3615V19.4375H70.2657C73.2831 19.4375 75.7804 21.359 75.7804 25.4126C75.7804 29.4663 73.2571 31.3615 70.2396 31.3615H67.3782ZM70.3697 34.7307C75.6243 34.7307 79.5002 31.3088 79.5002 25.4126C79.5002 19.5165 75.6503 16.0683 70.3957 16.0683H63.7885V34.7307H70.3697Z" fill="#0F64C4"/>
<path d="M94.1618 34.7307V31.3088H86.2019V26.992H93.4074V23.7543H86.2019V19.4901H94.1618V16.0683H82.6122V34.7307H94.1618Z" fill="#0F64C4"/>
<path d="M106.857 34.7307H110.863L106.909 27.0973C109.328 26.3866 110.837 24.4124 110.837 21.8065C110.837 18.5689 108.548 16.0683 104.958 16.0683H97.7524V34.7307H101.368V27.5447H103.241L106.857 34.7307ZM101.368 24.4124V19.2269H104.282C106.102 19.2269 107.169 20.2535 107.169 21.8328C107.169 23.3595 106.102 24.4124 104.282 24.4124H101.368Z" fill="#0F64C4"/>
<path d="M126.472 34.7307H130.374L123.35 16.0683H119.188L112.113 34.7307H115.91L117.445 30.4665H124.937L126.472 34.7307ZM121.191 20.0956L123.74 27.1499H118.642L121.191 20.0956Z" fill="#0F64C4"/>
<path d="M134.471 25.3863C134.471 21.1748 137.384 19.1743 140.219 19.1743C143.081 19.1743 145.994 21.1748 145.994 25.3863C145.994 29.5979 143.081 31.5984 140.219 31.5984C137.384 31.5984 134.471 29.5979 134.471 25.3863ZM130.751 25.4126C130.751 31.4141 135.225 35.1255 140.219 35.1255C145.24 35.1255 149.714 31.4141 149.714 25.4126C149.714 19.3849 145.24 15.6734 140.219 15.6734C135.225 15.6734 130.751 19.3849 130.751 25.4126Z" fill="#0F64C4"/>
<path d="M165.183 20.5167C164.767 18.4109 163.05 15.6734 158.576 15.6734C155.091 15.6734 152.151 18.2004 152.151 21.517C152.151 24.3334 154.05 26.255 156.989 26.8604L159.565 27.3868C160.995 27.6764 161.802 28.5187 161.802 29.5979C161.802 30.914 160.735 31.8879 158.81 31.8879C156.209 31.8879 154.934 30.2296 154.778 28.3871L151.449 29.282C151.735 31.9406 153.894 35.1255 158.784 35.1255C163.076 35.1255 165.444 32.2301 165.444 29.361C165.444 26.7288 163.649 24.5177 160.293 23.8596L157.718 23.3595C156.365 23.0963 155.715 22.2803 155.715 21.2537C155.715 20.0166 156.859 18.8847 158.602 18.8847C160.943 18.8847 161.776 20.4904 161.958 21.517L165.183 20.5167Z" fill="#0F64C4"/>
<path d="M92.832 45.5769C92.7802 45.5246 92.7391 45.4651 92.7085 45.3984C92.6779 45.3294 92.6626 45.2508 92.6626 45.1628C92.6626 45.0723 92.6791 44.9926 92.712 44.9236C92.7473 44.8522 92.7908 44.795 92.8425 44.7522C92.9343 44.676 93.0307 44.638 93.1319 44.638C93.2354 44.638 93.3224 44.6451 93.3929 44.6594C93.4659 44.6737 93.5341 44.6963 93.5976 44.7272C93.7434 44.8034 93.8163 44.9129 93.8163 45.0557C93.8163 45.2342 93.7587 45.3901 93.6434 45.5234C93.5352 45.6471 93.4223 45.715 93.3047 45.7269C93.1895 45.7388 93.0954 45.7292 93.0225 45.6983C92.9496 45.6697 92.8861 45.6293 92.832 45.5769Z" fill="#0F64C4"/>
<path d="M94.7866 45.5769C94.7348 45.5246 94.6937 45.4651 94.6631 45.3984C94.6325 45.3294 94.6172 45.2508 94.6172 45.1628C94.6172 45.0723 94.6337 44.9926 94.6666 44.9236C94.7019 44.8522 94.7454 44.795 94.7972 44.7522C94.8889 44.676 94.9853 44.638 95.0865 44.638C95.19 44.638 95.277 44.6451 95.3476 44.6594C95.4205 44.6737 95.4887 44.6963 95.5522 44.7272C95.698 44.8034 95.771 44.9129 95.771 45.0557C95.771 45.2342 95.7133 45.3901 95.5981 45.5234C95.4899 45.6471 95.377 45.715 95.2594 45.7269C95.1441 45.7388 95.05 45.7292 94.9771 45.6983C94.9042 45.6697 94.8407 45.6293 94.7866 45.5769Z" fill="#0F64C4"/>
<path d="M96.7412 45.5769C96.6895 45.5246 96.6483 45.4651 96.6177 45.3984C96.5871 45.3294 96.5719 45.2508 96.5719 45.1628C96.5719 45.0723 96.5883 44.9926 96.6212 44.9236C96.6565 44.8522 96.7 44.795 96.7518 44.7522C96.8435 44.676 96.94 44.638 97.0411 44.638C97.1446 44.638 97.2316 44.6451 97.3022 44.6594C97.3751 44.6737 97.4433 44.6963 97.5068 44.7272C97.6527 44.8034 97.7256 44.9129 97.7256 45.0557C97.7256 45.2342 97.6679 45.3901 97.5527 45.5234C97.4445 45.6471 97.3316 45.715 97.214 45.7269C97.0987 45.7388 97.0046 45.7292 96.9317 45.6983C96.8588 45.6697 96.7953 45.6293 96.7412 45.5769Z" fill="#0F64C4"/>
<path d="M98.6429 44.4487C98.6523 44.2417 98.6864 44.0441 98.7452 43.8561C98.804 43.6657 98.8828 43.4824 98.9816 43.3063C99.0804 43.1278 99.1957 42.96 99.3274 42.8029C99.4614 42.6434 99.6061 42.5042 99.7614 42.3852C100.098 42.1305 100.438 42.0032 100.781 42.0032C101.183 42.0032 101.451 42.171 101.585 42.5066C101.632 42.6208 101.655 42.7565 101.652 42.9136C101.65 43.0683 101.621 43.2123 101.564 43.3456C101.508 43.4765 101.429 43.5967 101.328 43.7061C101.229 43.8132 101.11 43.9096 100.972 43.9953C100.835 44.081 100.686 44.1536 100.523 44.2131C100.189 44.3321 99.8319 44.394 99.4509 44.3988C99.4415 44.4321 99.4356 44.4821 99.4332 44.5487C99.4309 44.6153 99.4379 44.6903 99.4544 44.7736C99.4709 44.8545 99.4991 44.9271 99.5391 44.9914C99.6237 45.1342 99.7461 45.2056 99.906 45.2056C100.179 45.2056 100.445 45.1247 100.703 44.9628C100.795 44.9081 100.869 44.8522 100.926 44.795C100.984 44.7355 101.035 44.7058 101.077 44.7058C101.12 44.7058 101.156 44.732 101.187 44.7843C101.22 44.8343 101.236 44.8914 101.236 44.9557C101.236 45.0819 101.201 45.1913 101.13 45.2842C100.834 45.5841 100.393 45.734 99.8072 45.734C99.4614 45.734 99.1839 45.6293 98.9746 45.4198C98.7393 45.1818 98.6288 44.8581 98.6429 44.4487ZM100.703 42.478C100.456 42.478 100.219 42.6494 99.9907 42.9921C99.7978 43.2872 99.6426 43.6371 99.525 44.0417C99.9178 44.0013 100.259 43.8442 100.548 43.5705C100.814 43.3134 100.947 43.0671 100.947 42.8314C100.947 42.5958 100.866 42.478 100.703 42.478Z" fill="#0F64C4"/>
<path d="M102.002 44.4666C102.006 44.2595 102.038 44.0536 102.097 43.8489C102.158 43.6419 102.238 43.4467 102.337 43.2634C102.438 43.0802 102.557 42.9112 102.693 42.7565C102.832 42.6018 102.983 42.4685 103.145 42.3566C103.484 42.121 103.84 42.0032 104.214 42.0032C104.6 42.0032 104.862 42.1591 105.001 42.4709C105.05 42.5827 105.072 42.7101 105.068 42.8529C105.065 42.9933 105.043 43.123 105.001 43.242C104.958 43.3586 104.905 43.4634 104.842 43.5562C104.698 43.7656 104.554 43.8704 104.408 43.8704C104.246 43.8704 104.126 43.8251 104.048 43.7347C103.98 43.6562 103.959 43.5645 103.985 43.4598C103.992 43.4289 104.013 43.4015 104.048 43.3777C104.083 43.3515 104.128 43.311 104.182 43.2563C104.335 43.0945 104.415 42.9052 104.422 42.6886C104.427 42.5411 104.337 42.4673 104.154 42.4673C103.956 42.4673 103.749 42.5792 103.533 42.8029C103.218 43.129 102.996 43.5467 102.866 44.056C102.753 44.4987 102.774 44.8224 102.93 45.0271C103.021 45.1461 103.146 45.2056 103.304 45.2056C103.569 45.2056 103.826 45.1104 104.073 44.92C104.148 44.8605 104.209 44.7998 104.256 44.7379C104.303 44.676 104.347 44.6451 104.387 44.6451C104.427 44.6451 104.46 44.6653 104.486 44.7058C104.514 44.7439 104.528 44.7939 104.528 44.8557C104.528 44.9962 104.466 45.1342 104.341 45.2699C104.021 45.5793 103.636 45.734 103.187 45.734C102.804 45.734 102.507 45.6233 102.298 45.402C102.091 45.183 101.992 44.8712 102.002 44.4666Z" fill="#0F64C4"/>
<path d="M105.71 45.4555C105.611 45.3603 105.533 45.2401 105.477 45.0949C105.421 44.9474 105.391 44.7736 105.389 44.5737C105.386 44.3738 105.41 44.1715 105.459 43.9668C105.511 43.7621 105.583 43.5645 105.675 43.3741C105.769 43.1837 105.88 43.0052 106.01 42.8386C106.142 42.672 106.286 42.5268 106.444 42.403C106.787 42.1365 107.144 42.0032 107.513 42.0032C107.997 42.0032 108.325 42.2186 108.497 42.6494C108.619 42.9612 108.627 43.3384 108.518 43.7811C108.42 44.1881 108.238 44.5618 107.975 44.9022C107.714 45.2425 107.406 45.4841 107.051 45.6269C106.872 45.6983 106.695 45.734 106.521 45.734C106.35 45.734 106.196 45.7114 106.059 45.6662C105.925 45.6209 105.809 45.5507 105.71 45.4555ZM106.384 43.724C106.313 43.9001 106.257 44.081 106.214 44.2667C106.174 44.4523 106.156 44.6284 106.158 44.795C106.16 44.9593 106.185 45.089 106.232 45.1842C106.281 45.277 106.36 45.3234 106.468 45.3234C106.577 45.3234 106.683 45.2865 106.786 45.2128C106.892 45.1366 106.994 45.0366 107.093 44.9129C107.192 44.7891 107.285 44.6463 107.372 44.4844C107.459 44.3226 107.535 44.1536 107.601 43.9775C107.744 43.5943 107.814 43.2539 107.809 42.9564C107.809 42.6946 107.756 42.528 107.65 42.4566C107.608 42.428 107.548 42.4137 107.47 42.4137C107.395 42.4137 107.308 42.4494 107.209 42.5208C107.111 42.5899 107.012 42.6839 106.913 42.8029C106.814 42.9219 106.719 43.0611 106.627 43.2206C106.535 43.3801 106.454 43.5479 106.384 43.724Z" fill="#0F64C4"/>
<path d="M111.761 42.6779C111.624 42.6779 111.375 42.8779 111.013 43.2777C110.742 43.5895 110.546 43.824 110.424 43.981L110.106 44.388C109.97 44.6499 109.863 44.8676 109.785 45.0414L109.594 45.4555C109.545 45.5579 109.502 45.6305 109.464 45.6733C109.429 45.7138 109.379 45.734 109.316 45.734C109.255 45.734 109.195 45.7221 109.136 45.6983C109.079 45.6769 109.03 45.6483 108.988 45.6126C108.898 45.5365 108.854 45.4532 108.854 45.3627C108.854 45.327 108.879 45.2568 108.931 45.1521L109.065 44.8629C109.108 44.7772 109.157 44.6677 109.213 44.5344L109.411 44.0453C109.689 43.3432 109.827 42.8898 109.827 42.6851C109.827 42.5756 109.792 42.4947 109.721 42.4423L109.651 42.3923C109.627 42.3757 109.616 42.3471 109.616 42.3066C109.616 42.2638 109.631 42.2233 109.661 42.1852C109.694 42.1472 109.737 42.1138 109.789 42.0853C109.894 42.0305 110 42.0032 110.106 42.0032C110.214 42.0032 110.299 42.0151 110.36 42.0389C110.421 42.0627 110.474 42.0948 110.519 42.1353C110.608 42.2186 110.653 42.3054 110.653 42.3959C110.653 42.4863 110.641 42.578 110.618 42.6708C110.594 42.7612 110.565 42.8541 110.529 42.9493C110.494 43.0421 110.457 43.1325 110.417 43.2206C110.322 43.4253 110.264 43.5514 110.24 43.599C110.219 43.6443 110.213 43.6609 110.222 43.649C110.653 43.0849 110.912 42.7517 110.999 42.6494C111.18 42.4375 111.321 42.2924 111.422 42.2138C111.608 42.0734 111.783 42.0032 111.948 42.0032C112.115 42.0032 112.248 42.0555 112.346 42.1603C112.445 42.265 112.495 42.403 112.495 42.5744C112.495 42.7243 112.457 42.9005 112.382 43.1028C112.306 43.3051 112.256 43.4467 112.23 43.5276L112.749 42.835L113.038 42.4851C113.212 42.2876 113.365 42.1579 113.497 42.096C113.628 42.0341 113.735 42.0032 113.818 42.0032C113.902 42.0032 113.985 42.0186 114.065 42.0496C114.147 42.0805 114.216 42.1246 114.273 42.1817C114.393 42.2983 114.453 42.453 114.453 42.6458C114.453 42.8314 114.41 43.0219 114.326 43.217C114.241 43.4122 114.167 43.5729 114.103 43.699C114.04 43.8228 113.979 43.9477 113.92 44.0739C113.748 44.4523 113.662 44.7332 113.662 44.9164C113.662 45.045 113.714 45.1092 113.818 45.1092C113.916 45.1092 114.006 45.0878 114.086 45.045C114.168 45.0021 114.221 44.9807 114.245 44.9807C114.294 44.9807 114.319 45.0057 114.319 45.0557C114.319 45.2675 114.212 45.4448 113.998 45.5876C113.854 45.6852 113.722 45.734 113.602 45.734C113.485 45.734 113.39 45.7197 113.317 45.6912C113.244 45.6626 113.178 45.6174 113.119 45.5555C112.987 45.4174 112.922 45.2449 112.922 45.0378C112.922 44.8307 112.947 44.6403 112.999 44.4666C113.051 44.2928 113.112 44.125 113.183 43.9632C113.253 43.799 113.324 43.649 113.394 43.5134C113.467 43.3753 113.523 43.2658 113.56 43.1849C113.635 43.0183 113.673 42.8957 113.673 42.8172C113.673 42.7243 113.625 42.6779 113.528 42.6779C113.401 42.6779 113.173 42.891 112.844 43.317C112.595 43.6478 112.422 43.8858 112.325 44.031L112.082 44.388C111.945 44.6499 111.841 44.8676 111.768 45.0414L111.588 45.4555C111.543 45.5579 111.504 45.6305 111.471 45.6733C111.439 45.7138 111.393 45.734 111.334 45.734C111.275 45.734 111.217 45.7245 111.161 45.7054C111.107 45.6864 111.06 45.6614 111.02 45.6305C110.928 45.5614 110.882 45.4889 110.882 45.4127C110.882 45.3341 110.907 45.2282 110.956 45.0949C111.008 44.9593 111.072 44.8081 111.147 44.6415L111.641 43.5848C111.817 43.192 111.905 42.9433 111.905 42.8386C111.905 42.7315 111.857 42.6779 111.761 42.6779ZM112.11 43.6847C112.112 43.6847 112.114 43.6835 112.114 43.6812L112.117 43.674C112.112 43.6788 112.11 43.6823 112.11 43.6847Z" fill="#0F64C4"/>
<path d="M117.653 42.6779C117.516 42.6779 117.267 42.8779 116.905 43.2777C116.634 43.5895 116.438 43.824 116.316 43.981L115.998 44.388C115.862 44.6499 115.755 44.8676 115.677 45.0414L115.487 45.4555C115.437 45.5579 115.394 45.6305 115.356 45.6733C115.321 45.7138 115.271 45.734 115.208 45.734C115.147 45.734 115.087 45.7221 115.028 45.6983C114.971 45.6769 114.922 45.6483 114.88 45.6126C114.79 45.5365 114.746 45.4532 114.746 45.3627C114.746 45.327 114.771 45.2568 114.823 45.1521L114.957 44.8629C115 44.7772 115.049 44.6677 115.106 44.5344L115.303 44.0453C115.581 43.3432 115.719 42.8898 115.719 42.6851C115.719 42.5756 115.684 42.4947 115.614 42.4423L115.543 42.3923C115.519 42.3757 115.508 42.3471 115.508 42.3066C115.508 42.2638 115.523 42.2233 115.554 42.1852C115.587 42.1472 115.629 42.1138 115.681 42.0853C115.786 42.0305 115.892 42.0032 115.998 42.0032C116.106 42.0032 116.191 42.0151 116.252 42.0389C116.313 42.0627 116.366 42.0948 116.411 42.1353C116.5 42.2186 116.545 42.3054 116.545 42.3959C116.545 42.4863 116.533 42.578 116.51 42.6708C116.486 42.7612 116.457 42.8541 116.422 42.9493C116.386 43.0421 116.349 43.1325 116.309 43.2206C116.215 43.4253 116.156 43.5514 116.132 43.599C116.111 43.6443 116.105 43.6609 116.115 43.649C116.545 43.0849 116.804 42.7517 116.891 42.6494C117.072 42.4375 117.213 42.2924 117.314 42.2138C117.5 42.0734 117.675 42.0032 117.84 42.0032C118.007 42.0032 118.14 42.0555 118.239 42.1603C118.337 42.265 118.387 42.403 118.387 42.5744C118.387 42.7243 118.349 42.9005 118.274 43.1028C118.199 43.3051 118.148 43.4467 118.122 43.5276L118.641 42.835L118.93 42.4851C119.104 42.2876 119.257 42.1579 119.389 42.096C119.52 42.0341 119.627 42.0032 119.71 42.0032C119.794 42.0032 119.877 42.0186 119.957 42.0496C120.039 42.0805 120.108 42.1246 120.165 42.1817C120.285 42.2983 120.345 42.453 120.345 42.6458C120.345 42.8314 120.303 43.0219 120.218 43.217C120.133 43.4122 120.059 43.5729 119.996 43.699C119.932 43.8228 119.871 43.9477 119.812 44.0739C119.64 44.4523 119.555 44.7332 119.555 44.9164C119.555 45.045 119.606 45.1092 119.71 45.1092C119.809 45.1092 119.898 45.0878 119.978 45.045C120.06 45.0021 120.113 44.9807 120.137 44.9807C120.186 44.9807 120.211 45.0057 120.211 45.0557C120.211 45.2675 120.104 45.4448 119.89 45.5876C119.746 45.6852 119.615 45.734 119.495 45.734C119.377 45.734 119.282 45.7197 119.209 45.6912C119.136 45.6626 119.07 45.6174 119.011 45.5555C118.88 45.4174 118.814 45.2449 118.814 45.0378C118.814 44.8307 118.84 44.6403 118.891 44.4666C118.943 44.2928 119.004 44.125 119.075 43.9632C119.145 43.799 119.216 43.649 119.286 43.5134C119.359 43.3753 119.415 43.2658 119.452 43.1849C119.528 43.0183 119.565 42.8957 119.565 42.8172C119.565 42.7243 119.517 42.6779 119.42 42.6779C119.293 42.6779 119.065 42.891 118.736 43.317C118.487 43.6478 118.314 43.8858 118.217 44.031L117.974 44.388C117.838 44.6499 117.733 44.8676 117.66 45.0414L117.48 45.4555C117.435 45.5579 117.396 45.6305 117.364 45.6733C117.331 45.7138 117.285 45.734 117.226 45.734C117.167 45.734 117.11 45.7245 117.053 45.7054C116.999 45.6864 116.952 45.6614 116.912 45.6305C116.82 45.5614 116.774 45.4889 116.774 45.4127C116.774 45.3341 116.799 45.2282 116.848 45.0949C116.9 44.9593 116.964 44.8081 117.039 44.6415L117.533 43.5848C117.709 43.192 117.798 42.9433 117.798 42.8386C117.798 42.7315 117.749 42.6779 117.653 42.6779ZM118.002 43.6847C118.005 43.6847 118.006 43.6835 118.006 43.6812L118.009 43.674C118.005 43.6788 118.002 43.6823 118.002 43.6847Z" fill="#0F64C4"/>
<path d="M120.92 44.4487C120.929 44.2417 120.963 44.0441 121.022 43.8561C121.081 43.6657 121.16 43.4824 121.259 43.3063C121.357 43.1278 121.473 42.96 121.604 42.8029C121.739 42.6434 121.883 42.5042 122.038 42.3852C122.375 42.1305 122.715 42.0032 123.058 42.0032C123.46 42.0032 123.728 42.171 123.863 42.5066C123.91 42.6208 123.932 42.7565 123.93 42.9136C123.927 43.0683 123.898 43.2123 123.841 43.3456C123.785 43.4765 123.706 43.5967 123.605 43.7061C123.506 43.8132 123.387 43.9096 123.249 43.9953C123.112 44.081 122.963 44.1536 122.801 44.2131C122.467 44.3321 122.109 44.394 121.728 44.3988C121.719 44.4321 121.713 44.4821 121.71 44.5487C121.708 44.6153 121.715 44.6903 121.731 44.7736C121.748 44.8545 121.776 44.9271 121.816 44.9914C121.901 45.1342 122.023 45.2056 122.183 45.2056C122.456 45.2056 122.722 45.1247 122.98 44.9628C123.072 44.9081 123.146 44.8522 123.203 44.795C123.262 44.7355 123.312 44.7058 123.354 44.7058C123.397 44.7058 123.433 44.732 123.464 44.7843C123.497 44.8343 123.513 44.8914 123.513 44.9557C123.513 45.0819 123.478 45.1913 123.407 45.2842C123.111 45.5841 122.67 45.734 122.084 45.734C121.739 45.734 121.461 45.6293 121.252 45.4198C121.016 45.1818 120.906 44.8581 120.92 44.4487ZM122.98 42.478C122.733 42.478 122.496 42.6494 122.268 42.9921C122.075 43.2872 121.92 43.6371 121.802 44.0417C122.195 44.0013 122.536 43.8442 122.825 43.5705C123.091 43.3134 123.224 43.0671 123.224 42.8314C123.224 42.5958 123.143 42.478 122.98 42.478Z" fill="#0F64C4"/>
<path d="M124.307 45.6126C124.26 45.5769 124.222 45.5376 124.194 45.4948C124.166 45.4496 124.151 45.4115 124.148 45.3806C124.146 45.3472 124.152 45.308 124.166 45.2627C124.182 45.2151 124.204 45.158 124.229 45.0914C124.709 43.8966 124.949 43.0945 124.949 42.6851C124.942 42.5708 124.903 42.4899 124.833 42.4423L124.762 42.3923C124.741 42.3757 124.729 42.3471 124.727 42.3066C124.727 42.2638 124.742 42.2233 124.773 42.1852C124.803 42.1472 124.843 42.1138 124.893 42.0853C124.994 42.0305 125.097 42.0032 125.203 42.0032C125.311 42.0032 125.395 42.0151 125.454 42.0389C125.515 42.0627 125.567 42.0948 125.609 42.1353C125.698 42.2209 125.743 42.3114 125.743 42.4066C125.745 42.5018 125.735 42.5982 125.711 42.6958C125.69 42.7934 125.664 42.8898 125.634 42.985C125.603 43.0778 125.573 43.167 125.542 43.2527C125.511 43.336 125.491 43.3979 125.482 43.4384C125.463 43.5217 125.456 43.574 125.461 43.5955C125.517 43.5455 125.551 43.4967 125.563 43.4491L125.701 43.1849C126.006 42.6279 126.305 42.259 126.597 42.0781C126.682 42.0282 126.783 42.0032 126.9 42.0032C127.02 42.0032 127.117 42.046 127.19 42.1317C127.263 42.215 127.3 42.3078 127.302 42.4102C127.307 42.5125 127.3 42.5982 127.281 42.6672C127.265 42.7339 127.239 42.7969 127.204 42.8564C127.126 42.9897 127.032 43.0564 126.921 43.0564C126.891 43.0564 126.863 43.0457 126.837 43.0242L126.759 42.9564C126.682 42.8874 126.606 42.8529 126.533 42.8529C126.463 42.8529 126.376 42.9005 126.272 42.9957C126.171 43.0909 126.065 43.2135 125.955 43.3634C125.583 43.8609 125.28 44.4178 125.044 45.0342L124.889 45.4484C124.849 45.5507 124.814 45.6245 124.783 45.6697C124.753 45.7126 124.707 45.734 124.646 45.734C124.587 45.734 124.527 45.7221 124.466 45.6983C124.407 45.6769 124.354 45.6483 124.307 45.6126Z" fill="#0F64C4"/>
<path d="M127.228 44.4666C127.233 44.2595 127.265 44.0536 127.324 43.8489C127.385 43.6419 127.465 43.4467 127.564 43.2634C127.665 43.0802 127.784 42.9112 127.92 42.7565C128.059 42.6018 128.209 42.4685 128.372 42.3566C128.71 42.121 129.067 42.0032 129.441 42.0032C129.826 42.0032 130.089 42.1591 130.227 42.4709C130.277 42.5827 130.299 42.7101 130.294 42.8529C130.292 42.9933 130.27 43.123 130.227 43.242C130.185 43.3586 130.132 43.4634 130.069 43.5562C129.925 43.7656 129.78 43.8704 129.635 43.8704C129.472 43.8704 129.352 43.8251 129.275 43.7347C129.207 43.6562 129.185 43.5645 129.211 43.4598C129.218 43.4289 129.239 43.4015 129.275 43.3777C129.31 43.3515 129.355 43.311 129.409 43.2563C129.562 43.0945 129.642 42.9052 129.649 42.6886C129.653 42.5411 129.564 42.4673 129.381 42.4673C129.183 42.4673 128.976 42.5792 128.76 42.8029C128.444 43.129 128.222 43.5467 128.093 44.056C127.98 44.4987 128.001 44.8224 128.156 45.0271C128.248 45.1461 128.373 45.2056 128.53 45.2056C128.796 45.2056 129.052 45.1104 129.299 44.92C129.375 44.8605 129.436 44.7998 129.483 44.7379C129.53 44.676 129.573 44.6451 129.613 44.6451C129.653 44.6451 129.686 44.6653 129.712 44.7058C129.74 44.7439 129.755 44.7939 129.755 44.8557C129.755 44.9962 129.692 45.1342 129.568 45.2699C129.248 45.5793 128.863 45.734 128.414 45.734C128.03 45.734 127.734 45.6233 127.525 45.402C127.318 45.183 127.219 44.8712 127.228 44.4666Z" fill="#0F64C4"/>
<path d="M130.644 44.4487C130.653 44.2417 130.687 44.0441 130.746 43.8561C130.805 43.6657 130.884 43.4824 130.982 43.3063C131.081 43.1278 131.196 42.96 131.328 42.8029C131.462 42.6434 131.607 42.5042 131.762 42.3852C132.099 42.1305 132.438 42.0032 132.782 42.0032C133.184 42.0032 133.452 42.171 133.586 42.5066C133.633 42.6208 133.656 42.7565 133.653 42.9136C133.651 43.0683 133.622 43.2123 133.565 43.3456C133.509 43.4765 133.43 43.5967 133.329 43.7061C133.23 43.8132 133.111 43.9096 132.972 43.9953C132.836 44.081 132.687 44.1536 132.524 44.2131C132.19 44.3321 131.833 44.394 131.452 44.3988C131.442 44.4321 131.436 44.4821 131.434 44.5487C131.432 44.6153 131.439 44.6903 131.455 44.7736C131.472 44.8545 131.5 44.9271 131.54 44.9914C131.625 45.1342 131.747 45.2056 131.907 45.2056C132.18 45.2056 132.445 45.1247 132.704 44.9628C132.796 44.9081 132.87 44.8522 132.926 44.795C132.985 44.7355 133.036 44.7058 133.078 44.7058C133.121 44.7058 133.157 44.732 133.188 44.7843C133.22 44.8343 133.237 44.8914 133.237 44.9557C133.237 45.0819 133.202 45.1913 133.131 45.2842C132.835 45.5841 132.394 45.734 131.808 45.734C131.462 45.734 131.185 45.6293 130.975 45.4198C130.74 45.1818 130.63 44.8581 130.644 44.4487ZM132.704 42.478C132.457 42.478 132.22 42.6494 131.991 42.9921C131.799 43.2872 131.643 43.6371 131.526 44.0417C131.919 44.0013 132.26 43.8442 132.549 43.5705C132.815 43.3134 132.948 43.0671 132.948 42.8314C132.948 42.5958 132.866 42.478 132.704 42.478Z" fill="#0F64C4"/>
<path d="M137.407 45.2913C137.087 45.5769 136.836 45.7197 136.652 45.7197C136.471 45.7197 136.345 45.6245 136.275 45.4341C136.249 45.3675 136.236 45.3056 136.236 45.2485C136.236 45.0938 136.259 44.9438 136.306 44.7986C136.356 44.6534 136.404 44.5178 136.451 44.3916L136.762 43.5812C136.882 43.2504 136.954 43.0195 136.98 42.8886C137.006 42.7577 137.003 42.6696 136.97 42.6244C136.937 42.5768 136.898 42.5363 136.853 42.503C136.811 42.4673 136.77 42.4363 136.73 42.4102C136.692 42.3816 136.673 42.3471 136.673 42.3066C136.673 42.2638 136.69 42.2233 136.723 42.1852C136.758 42.1472 136.804 42.1138 136.86 42.0853C136.973 42.0305 137.09 42.0032 137.21 42.0032C137.332 42.0032 137.427 42.0163 137.495 42.0424C137.566 42.0662 137.624 42.0972 137.668 42.1353C137.755 42.2138 137.799 42.309 137.799 42.4209C137.799 42.5304 137.78 42.6541 137.742 42.7922C137.707 42.9302 137.661 43.0766 137.605 43.2313C137.551 43.386 137.49 43.5467 137.421 43.7133L137.227 44.206C137.074 44.6034 136.982 44.901 136.949 45.0985C137.17 45.0224 137.463 44.7486 137.827 44.2774C138.225 43.7609 138.576 43.1718 138.882 42.5101C138.917 42.4268 138.961 42.3733 139.013 42.3495C139.097 42.309 139.204 42.2912 139.334 42.2959C139.538 42.3031 139.644 42.3673 139.651 42.4887C139.656 42.5625 139.636 42.6446 139.591 42.7351C139.549 42.8231 139.514 42.8969 139.485 42.9564L139.348 43.242C139.073 43.8061 138.935 44.2643 138.935 44.6165C138.935 44.8617 139.001 45.0295 139.133 45.1199C139.17 45.1485 139.228 45.1628 139.305 45.1628C139.383 45.1628 139.475 45.1354 139.581 45.0807C139.686 45.0235 139.788 44.9462 139.884 44.8486C139.981 44.751 140.07 44.638 140.152 44.5094C140.237 44.3785 140.31 44.2393 140.371 44.0917C140.5 43.7799 140.565 43.5038 140.565 43.2634C140.565 42.8517 140.489 42.5482 140.336 42.353C140.284 42.2912 140.299 42.2186 140.382 42.1353C140.469 42.0472 140.605 42.0032 140.791 42.0032C141.019 42.0032 141.174 42.1329 141.257 42.3923C141.289 42.4899 141.306 42.6363 141.306 42.8314C141.306 43.0266 141.272 43.2444 141.204 43.4848C141.135 43.7228 141.042 43.9525 140.925 44.1738C140.81 44.3928 140.676 44.5975 140.523 44.7879C140.372 44.9783 140.213 45.1437 140.046 45.2842C139.689 45.5841 139.357 45.734 139.051 45.734C138.527 45.734 138.265 45.3913 138.265 44.7058C138.265 44.5487 138.279 44.3952 138.307 44.2452C138.029 44.6546 137.73 45.0033 137.407 45.2913Z" fill="#0F64C4"/>
<path d="M143.571 41.1677C143.519 41.2225 143.46 41.2677 143.395 41.3034C143.329 41.3367 143.259 41.3582 143.186 41.3677C143.114 41.3748 143.044 41.3629 142.978 41.332C142.915 41.301 142.86 41.257 142.812 41.1999C142.711 41.0809 142.661 40.9607 142.661 40.8393C142.661 40.7179 142.68 40.6275 142.717 40.568C142.757 40.5061 142.807 40.4561 142.865 40.418C142.978 40.3442 143.084 40.3073 143.183 40.3073C143.284 40.3073 143.362 40.3145 143.416 40.3288C143.472 40.343 143.524 40.3668 143.571 40.4002C143.686 40.4787 143.744 40.5751 143.744 40.6893C143.744 40.8012 143.727 40.8952 143.695 40.9714C143.664 41.0452 143.623 41.1106 143.571 41.1677ZM142.848 45.0307C142.909 45.0307 142.939 45.0711 142.939 45.1521C142.939 45.2592 142.891 45.3698 142.795 45.4841C142.654 45.6507 142.464 45.734 142.227 45.734C141.954 45.734 141.767 45.6221 141.666 45.3984C141.628 45.3199 141.609 45.2247 141.609 45.1128C141.609 45.0009 141.628 44.8772 141.666 44.7415C141.706 44.6034 141.754 44.4594 141.81 44.3095C141.869 44.1572 141.933 44.0037 142.001 43.8489L142.188 43.3991C142.324 43.0635 142.393 42.8422 142.393 42.7351C142.393 42.6279 142.381 42.5577 142.357 42.5244C142.336 42.4887 142.313 42.4613 142.287 42.4423L142.216 42.3923C142.193 42.3757 142.181 42.3471 142.181 42.3066C142.181 42.2638 142.196 42.2233 142.227 42.1852C142.26 42.1472 142.302 42.1138 142.354 42.0853C142.46 42.0305 142.583 42.0032 142.724 42.0032C143.07 42.0032 143.243 42.0948 143.243 42.2781C143.243 42.4923 143.188 42.7374 143.077 43.0135C142.967 43.2872 142.872 43.5086 142.795 43.6776L142.583 44.1703C142.428 44.532 142.35 44.7927 142.35 44.9521C142.35 45.0569 142.402 45.1092 142.506 45.1092C142.607 45.1092 142.683 45.0961 142.735 45.07C142.787 45.0438 142.824 45.0307 142.848 45.0307Z" fill="#0F64C4"/>
<path d="M145.787 44.7629C145.855 44.7629 145.889 44.8093 145.889 44.9022C145.889 44.9807 145.866 45.0569 145.819 45.1306C145.755 45.2687 145.628 45.3996 145.437 45.5234C145.221 45.6638 145.003 45.734 144.785 45.734C144.406 45.734 144.166 45.5626 144.065 45.2199C143.945 44.8129 144.125 43.9501 144.605 42.6315C144.334 42.6077 144.187 42.5601 144.164 42.4887C144.157 42.4673 144.153 42.4447 144.153 42.4209C144.153 42.3947 144.164 42.3649 144.185 42.3316C144.208 42.2983 144.238 42.2662 144.273 42.2352C144.355 42.1662 144.439 42.1317 144.524 42.1317H144.802C145.056 41.5295 145.238 41.1868 145.346 41.1035C145.397 41.0654 145.455 41.0464 145.519 41.0464C145.582 41.0464 145.635 41.0547 145.677 41.0714C145.72 41.088 145.757 41.1118 145.79 41.1428C145.866 41.2142 145.903 41.2939 145.903 41.382C145.903 41.4296 145.889 41.4843 145.861 41.5462L145.6 42.121H145.684C145.83 42.121 145.948 42.1198 146.037 42.1174C146.037 42.1174 146.104 42.1162 146.238 42.1138C146.283 42.1115 146.338 42.1103 146.404 42.1103C146.472 42.1103 146.507 42.1353 146.507 42.1852C146.507 42.4994 146.14 42.6565 145.406 42.6565H145.377L145.138 43.2849C144.867 44.0275 144.732 44.5475 144.732 44.845C144.732 44.9283 144.751 44.9938 144.788 45.0414C144.826 45.0866 144.896 45.1092 145 45.1092C145.103 45.1092 145.198 45.0914 145.282 45.0557C145.367 45.02 145.441 44.9807 145.505 44.9379C145.568 44.8926 145.622 44.8522 145.667 44.8165C145.714 44.7808 145.754 44.7629 145.787 44.7629Z" fill="#0F64C4"/>
<path d="M148.877 42.6779C148.748 42.6779 148.516 42.8779 148.182 43.2777L147.89 43.6419L147.325 44.388C147.189 44.6499 147.082 44.8676 147.004 45.0414L146.813 45.4555C146.764 45.5579 146.721 45.6305 146.683 45.6733C146.648 45.7138 146.598 45.734 146.535 45.734C146.474 45.734 146.414 45.7221 146.355 45.6983C146.298 45.6769 146.249 45.6483 146.207 45.6126C146.117 45.5365 146.073 45.4532 146.073 45.3627C146.073 45.327 146.097 45.2568 146.147 45.1521L146.288 44.8629C146.728 43.9465 147.126 42.785 147.484 41.3784C147.616 40.8595 147.711 40.393 147.77 39.9789C147.795 39.7789 147.892 39.679 148.059 39.679C148.167 39.679 148.257 39.7052 148.327 39.7575C148.463 39.8599 148.529 39.9694 148.525 40.086C148.52 40.2026 148.503 40.3335 148.475 40.4787C148.447 40.6239 148.411 40.7822 148.366 40.9535C148.321 41.1225 148.271 41.301 148.214 41.4891C148.059 41.9675 147.944 42.3126 147.868 42.5244C147.638 43.1647 147.496 43.5395 147.441 43.649C147.477 43.6062 147.523 43.5479 147.579 43.4741C148.007 42.9052 148.272 42.5661 148.373 42.4566C148.474 42.3447 148.56 42.259 148.63 42.1995C148.779 42.0686 148.967 42.0032 149.195 42.0032C149.381 42.0032 149.53 42.0662 149.643 42.1924C149.749 42.3138 149.802 42.4471 149.802 42.5922C149.802 42.7351 149.785 42.8648 149.752 42.9814C149.722 43.0956 149.682 43.2123 149.632 43.3313C149.583 43.4503 149.529 43.5729 149.47 43.699L149.294 44.0739C149.129 44.4523 149.047 44.7332 149.047 44.9164C149.047 45.045 149.099 45.1092 149.202 45.1092C149.301 45.1092 149.39 45.0878 149.47 45.045C149.553 45.0021 149.605 44.9807 149.629 44.9807C149.678 44.9807 149.703 45.0057 149.703 45.0557C149.703 45.2675 149.597 45.4448 149.386 45.5876C149.24 45.6852 149.107 45.734 148.987 45.734C148.867 45.734 148.767 45.7221 148.687 45.6983C148.609 45.6721 148.54 45.6305 148.479 45.5733C148.34 45.4448 148.271 45.2556 148.271 45.0057C148.271 44.7367 148.358 44.3988 148.532 43.9918L148.913 43.1706C148.986 43.0183 149.022 42.8981 149.022 42.81C149.022 42.722 148.974 42.6779 148.877 42.6779Z" fill="#0F64C4"/>
<path d="M152.603 44.4487C152.613 44.2417 152.647 44.0441 152.706 43.8561C152.764 43.6657 152.843 43.4824 152.942 43.3063C153.041 43.1278 153.156 42.96 153.288 42.8029C153.422 42.6434 153.566 42.5042 153.722 42.3852C154.058 42.1305 154.398 42.0032 154.741 42.0032C155.144 42.0032 155.412 42.171 155.546 42.5066C155.593 42.6208 155.615 42.7565 155.613 42.9136C155.61 43.0683 155.581 43.2123 155.525 43.3456C155.468 43.4765 155.389 43.5967 155.288 43.7061C155.189 43.8132 155.071 43.9096 154.932 43.9953C154.795 44.081 154.646 44.1536 154.484 44.2131C154.15 44.3321 153.792 44.394 153.411 44.3988C153.402 44.4321 153.396 44.4821 153.394 44.5487C153.391 44.6153 153.398 44.6903 153.415 44.7736C153.431 44.8545 153.459 44.9271 153.499 44.9914C153.584 45.1342 153.706 45.2056 153.866 45.2056C154.139 45.2056 154.405 45.1247 154.664 44.9628C154.755 44.9081 154.83 44.8522 154.886 44.795C154.945 44.7355 154.995 44.7058 155.038 44.7058C155.08 44.7058 155.117 44.732 155.147 44.7843C155.18 44.8343 155.196 44.8914 155.196 44.9557C155.196 45.0819 155.161 45.1913 155.091 45.2842C154.794 45.5841 154.353 45.734 153.768 45.734C153.422 45.734 153.144 45.6293 152.935 45.4198C152.7 45.1818 152.589 44.8581 152.603 44.4487ZM154.664 42.478C154.417 42.478 154.179 42.6494 153.951 42.9921C153.758 43.2872 153.603 43.6371 153.485 44.0417C153.878 44.0013 154.219 43.8442 154.508 43.5705C154.774 43.3134 154.907 43.0671 154.907 42.8314C154.907 42.5958 154.826 42.478 154.664 42.478Z" fill="#0F64C4"/>
<path d="M158.7 44.7486C158.7 44.9676 158.776 45.0771 158.929 45.0771C159.035 45.0771 159.122 45.0604 159.19 45.0271C159.261 44.9938 159.308 44.9771 159.332 44.9771C159.381 44.9771 159.406 45.0033 159.406 45.0557C159.406 45.2604 159.3 45.4365 159.088 45.5841C158.865 45.7388 158.636 45.7768 158.404 45.6983C158.251 45.6436 158.138 45.5257 158.065 45.3449C158.03 45.252 158.012 45.1675 158.012 45.0914C158.012 44.9676 158.024 44.8367 158.047 44.6987C157.829 45.1509 157.557 45.4627 157.232 45.634C157.103 45.7007 156.965 45.734 156.819 45.734C156.674 45.734 156.547 45.7043 156.438 45.6448C156.333 45.5829 156.242 45.4984 156.167 45.3913C156.014 45.1675 155.944 44.8867 155.959 44.5487C155.973 44.125 156.096 43.7097 156.329 43.3027C156.543 42.9219 156.814 42.6113 157.141 42.3709C157.467 42.1257 157.773 42.0032 158.058 42.0032C158.342 42.0032 158.572 42.1353 158.746 42.3995C158.908 42.1353 159.052 42.0032 159.176 42.0032C159.31 42.0032 159.411 42.0282 159.48 42.0781C159.609 42.1733 159.655 42.2566 159.617 42.3281C159.027 43.5514 158.723 44.3131 158.707 44.613C158.702 44.6558 158.7 44.701 158.7 44.7486ZM156.742 44.7629C156.742 45.0485 156.832 45.1913 157.014 45.1913C157.152 45.1913 157.323 45.0723 157.525 44.8343C157.821 44.4844 158.084 44.0132 158.312 43.4205C158.385 43.2349 158.446 43.0492 158.495 42.8636C158.486 42.7017 158.419 42.5827 158.294 42.5066C158.252 42.4804 158.188 42.4673 158.104 42.4673C158.021 42.4673 157.924 42.4982 157.811 42.5601C157.7 42.622 157.592 42.7065 157.486 42.8136C157.383 42.9207 157.285 43.048 157.193 43.1956C157.104 43.3408 157.025 43.4991 156.957 43.6704C156.814 44.037 156.742 44.4011 156.742 44.7629Z" fill="#0F64C4"/>
<path d="M159.723 45.07C159.723 44.9962 159.738 44.9283 159.769 44.8665C159.802 44.8022 159.842 44.7486 159.889 44.7058C159.988 44.613 160.091 44.5666 160.199 44.5666C160.294 44.5666 160.341 44.6153 160.341 44.7129C160.341 44.9605 160.422 45.133 160.584 45.2306C160.643 45.2663 160.704 45.2842 160.768 45.2842C160.831 45.2842 160.885 45.277 160.93 45.2627C160.974 45.2485 161.016 45.2258 161.053 45.1949C161.138 45.1259 161.18 45.0438 161.18 44.9486C161.18 44.8534 161.159 44.7665 161.117 44.6879C161.074 44.607 161.022 44.5225 160.958 44.4345L160.757 44.1488C160.475 43.768 160.334 43.417 160.334 43.0956C160.334 42.8291 160.445 42.5875 160.669 42.3709C160.923 42.1257 161.249 42.0032 161.646 42.0032C161.994 42.0032 162.266 42.09 162.461 42.2638C162.621 42.4042 162.701 42.5649 162.701 42.7458C162.701 42.9338 162.63 43.0837 162.489 43.1956C162.362 43.2956 162.235 43.3325 162.108 43.3063C162.052 43.2944 162.008 43.2658 161.978 43.2206C161.947 43.173 161.941 43.1194 161.96 43.0599C161.979 43.0004 161.988 42.9386 161.988 42.8743C161.988 42.81 161.977 42.7505 161.953 42.6958C161.929 42.641 161.898 42.5946 161.858 42.5565C161.775 42.478 161.688 42.4387 161.597 42.4387C161.507 42.4387 161.433 42.4494 161.374 42.4709C161.316 42.4899 161.264 42.5185 161.219 42.5565C161.127 42.6422 161.082 42.7481 161.082 42.8743C161.082 42.9981 161.103 43.1052 161.145 43.1956C161.187 43.2861 161.239 43.3765 161.3 43.4669C161.364 43.5574 161.432 43.649 161.505 43.7418C161.578 43.8347 161.645 43.9323 161.706 44.0346C161.854 44.275 161.928 44.4868 161.928 44.6701C161.928 44.851 161.891 45.0033 161.815 45.1271C161.74 45.2485 161.643 45.3532 161.523 45.4412C161.266 45.634 160.979 45.7304 160.662 45.7304C160.358 45.7304 160.118 45.6567 159.942 45.5091C159.796 45.3853 159.723 45.2389 159.723 45.07Z" fill="#0F64C4"/>
<path d="M162.99 44.4487C163 44.2417 163.034 44.0441 163.093 43.8561C163.151 43.6657 163.23 43.4824 163.329 43.3063C163.428 43.1278 163.543 42.96 163.675 42.8029C163.809 42.6434 163.953 42.5042 164.109 42.3852C164.445 42.1305 164.785 42.0032 165.128 42.0032C165.531 42.0032 165.799 42.171 165.933 42.5066C165.98 42.6208 166.002 42.7565 166 42.9136C165.997 43.0683 165.968 43.2123 165.912 43.3456C165.855 43.4765 165.776 43.5967 165.675 43.7061C165.576 43.8132 165.458 43.9096 165.319 43.9953C165.182 44.081 165.033 44.1536 164.871 44.2131C164.537 44.3321 164.179 44.394 163.798 44.3988C163.789 44.4321 163.783 44.4821 163.781 44.5487C163.778 44.6153 163.785 44.6903 163.802 44.7736C163.818 44.8545 163.846 44.9271 163.886 44.9914C163.971 45.1342 164.093 45.2056 164.253 45.2056C164.526 45.2056 164.792 45.1247 165.051 44.9628C165.142 44.9081 165.217 44.8522 165.273 44.795C165.332 44.7355 165.382 44.7058 165.425 44.7058C165.467 44.7058 165.504 44.732 165.534 44.7843C165.567 44.8343 165.583 44.8914 165.583 44.9557C165.583 45.0819 165.548 45.1913 165.478 45.2842C165.181 45.5841 164.74 45.734 164.155 45.734C163.809 45.734 163.531 45.6293 163.322 45.4198C163.087 45.1818 162.976 44.8581 162.99 44.4487ZM165.051 42.478C164.804 42.478 164.566 42.6494 164.338 42.9921C164.145 43.2872 163.99 43.6371 163.872 44.0417C164.265 44.0013 164.606 43.8442 164.896 43.5705C165.161 43.3134 165.294 43.0671 165.294 42.8314C165.294 42.5958 165.213 42.478 165.051 42.478Z" fill="#0F64C4"/>
</svg>
